<?xml version="1.0" standalone="no"?>
<!DOCTYPE svg PUBLIC "-//W3C//DTD SVG 20010904//EN"
 "http://www.w3.org/TR/2001/REC-SVG-20010904/DTD/svg10.dtd">
<svg version="1.0" xmlns="http://www.w3.org/2000/svg"
 width="16.000000pt" height="16.000000pt" viewBox="0 0 16.000000 16.000000"
 preserveAspectRatio="xMidYMid meet">
<metadata>
Created by potrace 1.11, written by Peter Selinger 2001-2013
</metadata>
<g transform="translate(0.000000,16.000000) scale(0.001379,-0.001379)"
fill="#000000" stroke="none">
<path d="M2627 10523 c-4 -3 -93 -7 -199 -9 -185 -3 -263 -7 -428 -19 -108 -8
-248 -22 -295 -31 -16 -2 -43 -6 -60 -8 -16 -2 -43 -6 -60 -9 -16 -4 -46 -9
-65 -12 -19 -4 -54 -10 -76 -15 -23 -5 -56 -11 -75 -14 -19 -2 -46 -9 -60 -14
-14 -6 -41 -13 -60 -16 -19 -3 -59 -13 -89 -22 -30 -10 -60 -18 -67 -20 -30
-5 -119 -38 -130 -47 -7 -5 -13 -7 -13 -3 0 3 -25 -5 -56 -19 -31 -14 -63 -25
-70 -25 -8 0 -14 -4 -14 -10 0 -5 -6 -10 -13 -10 -13 0 -143 -65 -164 -82 -7
-6 -13 -7 -13 -2 0 5 -4 4 -8 -1 -4 -6 -32 -26 -62 -45 -30 -19 -57 -37 -60
-40 -3 -3 -25 -21 -50 -40 -66 -50 -250 -240 -233 -240 3 0 -5 -15 -19 -32
-13 -18 -38 -60 -55 -93 -31 -60 -86 -195 -78 -195 2 0 -1 -14 -6 -32 -10 -38
3 -64 64 -121 35 -32 162 -103 200 -111 7 -2 19 -5 27 -9 57 -21 199 -47 285
-52 28 -1 50 -3 50 -5 0 -1 62 -2 138 -3 101 -2 142 1 149 11 6 6 15 12 20 12
23 0 78 77 78 108 0 29 -39 92 -57 92 -6 0 -13 4 -15 9 -10 26 -160 84 -337
130 -115 31 -142 41 -103 41 33 0 36 1 49 12 7 6 13 8 13 5 0 -3 15 -1 33 4
17 6 43 12 57 14 14 2 59 10 100 19 68 13 140 26 225 40 26 4 119 16 245 31
63 8 153 16 235 21 44 3 109 7 145 10 121 11 804 12 818 1 8 -6 12 -6 12 2 0
7 5 9 11 5 6 -3 52 -8 103 -10 50 -2 118 -6 151 -9 33 -3 89 -7 125 -10 79 -6
153 -13 200 -20 19 -2 64 -7 100 -10 36 -3 72 -8 80 -10 8 -3 38 -7 65 -10 28
-3 61 -7 75 -10 14 -3 45 -7 70 -10 25 -3 61 -8 80 -12 19 -3 46 -7 60 -9 14
-1 25 -3 25 -4 0 -3 30 -8 85 -15 25 -2 68 -9 95 -15 28 -6 62 -13 77 -15 22
-4 259 -54 403 -86 22 -4 49 -10 60 -13 11 -2 40 -9 65 -16 25 -7 53 -14 64
-16 10 -2 42 -10 70 -18 28 -8 62 -17 76 -20 30 -6 71 -17 165 -44 39 -11 104
-30 145 -42 41 -11 125 -37 185 -57 61 -19 115 -36 120 -37 24 -6 246 -80 305
-103 8 -4 17 -7 20 -8 19 -4 87 -29 95 -34 6 -3 17 -6 25 -8 16 -2 72 -24 136
-54 23 -10 45 -19 49 -19 8 0 105 -37 163 -61 20 -8 34 -14 95 -38 12 -5 40
-17 62 -27 22 -10 42 -19 45 -19 3 0 14 -6 25 -12 11 -6 25 -12 30 -13 25 -6
173 -70 287 -124 53 -25 99 -46 102 -46 3 0 108 -50 233 -112 126 -61 230
-111 233 -110 3 0 12 -5 20 -11 8 -7 47 -28 85 -47 39 -19 72 -37 75 -40 3 -3
32 -19 65 -36 76 -38 211 -112 250 -136 17 -10 42 -24 58 -30 15 -7 27 -16 27
-20 0 -4 5 -8 10 -8 6 0 45 -21 88 -46 42 -25 86 -51 97 -57 11 -7 57 -35 102
-64 46 -29 87 -53 93 -53 5 0 10 -4 10 -10 0 -5 7 -10 15 -10 8 0 15 -4 15
-10 0 -5 5 -10 11 -10 6 0 30 -13 54 -30 24 -16 48 -30 53 -30 6 0 12 -3 14
-7 5 -13 78 -65 78 -56 0 4 4 4 8 -2 13 -18 90 -75 101 -75 6 0 11 -4 11 -10
0 -5 7 -10 15 -10 8 0 15 -4 15 -8 0 -4 14 -16 31 -26 40 -24 163 -118 167
-128 2 -4 10 -8 17 -8 8 0 18 -6 22 -13 4 -7 24 -24 43 -37 39 -27 53 -39 114
-90 23 -19 61 -51 85 -70 24 -19 54 -45 67 -57 13 -13 25 -23 28 -23 8 0 145
-130 306 -290 134 -135 180 -183 273 -294 10 -11 28 -32 40 -46 12 -14 38 -45
57 -70 19 -25 38 -46 42 -48 5 -2 8 -8 8 -13 0 -5 22 -37 48 -72 59 -75 112
-155 112 -167 0 -4 3 -10 8 -12 12 -5 82 -117 82 -132 0 -8 4 -16 8 -18 12 -4
108 -180 116 -212 3 -14 11 -26 16 -26 6 0 10 -6 10 -13 0 -8 6 -27 14 -43 13
-25 35 -77 41 -94 1 -3 5 -14 10 -25 38 -93 77 -208 90 -268 2 -10 9 -32 14
-50 18 -54 42 -165 47 -215 3 -26 8 -54 10 -62 18 -52 25 -428 12 -560 -17
-166 -74 -402 -129 -535 -7 -16 -13 -35 -15 -42 -1 -6 -20 -49 -43 -95 -23
-46 -41 -87 -40 -92 0 -5 -3 -12 -8 -15 -4 -3 -30 -43 -58 -88 -27 -46 -53
-83 -57 -83 -4 0 -8 -7 -8 -15 0 -9 -7 -18 -15 -21 -8 -4 -13 -10 -10 -14 3
-5 0 -12 -8 -17 -7 -4 -20 -20 -29 -34 -26 -41 -208 -221 -273 -270 -110 -83
-164 -111 -405 -213 -74 -32 -147 -64 -162 -72 -15 -8 -31 -15 -35 -16 -5 0
-17 -4 -28 -8 -197 -77 -396 -147 -430 -152 -11 -2 -22 -6 -25 -9 -3 -3 -50
-18 -105 -33 -55 -14 -107 -28 -115 -30 -27 -8 -244 -55 -275 -61 -16 -3 -46
-8 -65 -11 -45 -8 -65 -12 -65 -14 0 0 -18 -3 -40 -5 -38 -4 -96 -11 -160 -20
-65 -9 -138 -17 -295 -30 -279 -24 -961 -23 -1290 0 -36 3 -112 7 -170 10 -58
2 -105 5 -105 5 0 4 -43 8 -126 14 -52 3 -123 9 -159 12 -36 3 -86 7 -111 7
-43 2 -45 4 -48 32 -1 17 -3 211 -4 432 -1 222 -4 403 -7 403 -3 0 -5 129 -4
288 0 158 -4 295 -8 304 -5 10 -4 19 2 23 8 5 7 11 -1 21 -6 8 -8 14 -3 14 5
0 9 20 9 45 0 25 -4 45 -8 45 -4 0 -3 9 4 21 7 14 8 24 1 31 -7 7 -7 19 -2 34
5 13 6 24 2 24 -4 0 -8 206 -10 459 l-3 458 38 -3 c21 -1 76 -5 123 -9 47 -4
105 -8 130 -10 25 -2 61 -6 80 -9 19 -2 73 -7 120 -11 47 -3 101 -8 120 -10
19 -2 67 -7 105 -10 39 -4 84 -8 100 -10 66 -7 142 -16 175 -21 19 -3 51 -7
70 -9 54 -5 118 -13 200 -25 108 -16 129 -19 188 -30 29 -5 56 -9 60 -8 4 1
18 -2 32 -5 14 -4 39 -9 55 -11 17 -3 39 -7 50 -9 11 -3 45 -8 75 -13 58 -8
67 -10 75 -14 7 -4 15 -5 68 -14 26 -4 47 -11 47 -16 0 -5 6 -7 14 -4 7 3 42
-2 77 -11 35 -10 72 -19 82 -20 35 -7 193 -56 247 -77 259 -99 357 -206 290
-316 -51 -83 -213 -188 -421 -272 -59 -24 -63 -32 -45 -90 24 -79 60 -120 139
-156 56 -25 73 -28 172 -28 70 0 137 7 185 18 41 10 82 19 90 21 75 16 310
108 413 162 131 69 275 238 303 356 2 9 7 27 10 40 17 69 13 203 -10 302 -17
74 -85 219 -132 280 -13 18 -24 35 -24 38 0 11 -21 34 -137 152 -152 155 -289
255 -509 372 -109 58 -153 78 -294 134 -41 17 -84 34 -95 39 -22 10 -180 62
-248 82 -23 6 -44 12 -47 13 -24 7 -59 17 -71 19 -8 2 -21 6 -29 9 -14 5 -107
27 -142 34 -52 9 -63 12 -65 13 -4 3 -12 5 -63 14 -25 5 -54 10 -65 12 -44 9
-182 33 -225 38 -25 4 -56 8 -70 11 -51 9 -194 24 -275 30 -33 2 -60 5 -60 6
0 1 -27 3 -60 5 -33 1 -60 3 -60 4 0 1 -30 3 -66 4 -36 2 -71 6 -78 10 -6 4
-11 2 -11 -4 0 -6 -5 -8 -12 -3 -7 4 -154 9 -327 10 -172 1 -316 5 -319 8 -3
3 -7 27 -8 53 -10 186 -15 280 -19 316 -3 22 -7 73 -10 111 -3 39 -7 86 -9
105 -2 19 -7 64 -12 100 -4 36 -8 77 -8 93 -1 15 -3 27 -6 27 -3 0 -6 12 -6
28 -2 42 -16 146 -21 155 -3 5 -6 18 -8 30 -9 73 -21 128 -56 262 -21 83 -41
158 -43 168 -3 9 -8 22 -11 27 -3 5 -8 18 -10 27 -7 37 -82 201 -113 247 -18
26 -32 49 -32 52 0 3 -25 30 -56 60 -60 57 -147 99 -187 89 -33 -9 -137 -175
-137 -220 0 -8 -5 -15 -11 -15 -5 0 -8 -4 -5 -8 3 -5 -2 -28 -10 -53 -9 -24
-17 -51 -19 -59 -2 -8 -12 -51 -23 -95 -11 -44 -23 -98 -27 -120 -7 -46 -13
-70 -15 -70 -2 0 -7 -28 -15 -85 -3 -25 -7 -52 -9 -60 -2 -8 -6 -42 -11 -75
-4 -33 -9 -69 -11 -80 -2 -11 -6 -42 -9 -70 -3 -27 -8 -66 -10 -85 -3 -19 -7
-60 -10 -90 -2 -30 -7 -76 -10 -102 -4 -26 -8 -71 -10 -100 -2 -29 -7 -96 -10
-148 -4 -52 -8 -108 -10 -125 -4 -25 -14 -216 -19 -352 -2 -39 -6 -44 -48 -49
-18 -2 -53 -8 -78 -13 -25 -5 -58 -12 -75 -15 -16 -3 -41 -7 -55 -10 -38 -9
-71 -15 -110 -22 -27 -5 -256 -57 -430 -99 -8 -2 -16 -4 -17 -5 -2 -2 -6 -3
-10 -4 -66 -15 -132 -33 -194 -52 -42 -14 -85 -26 -95 -29 -11 -2 -53 -15 -94
-30 -41 -14 -86 -28 -100 -31 -13 -3 -31 -11 -39 -17 -8 -7 -15 -10 -15 -8 -2
8 -221 -72 -313 -114 -17 -8 -36 -15 -42 -15 -6 0 -11 -4 -11 -8 0 -5 -6 -9
-12 -9 -7 0 -69 -28 -138 -63 -69 -35 -135 -68 -147 -74 -13 -6 -23 -14 -23
-18 0 -5 -5 -8 -11 -8 -16 0 -171 -102 -248 -164 -92 -74 -190 -175 -236 -243
-21 -32 -45 -69 -55 -83 -17 -26 -57 -128 -65 -168 -3 -12 -7 -32 -10 -45 -8
-30 -8 -187 -1 -215 3 -12 8 -30 10 -40 24 -106 83 -243 173 -398 41 -71 113
-184 123 -194 3 -3 36 -44 72 -91 37 -48 89 -111 115 -140 69 -77 272 -277
329 -324 26 -22 55 -47 64 -55 8 -8 36 -31 60 -50 25 -19 47 -37 50 -40 13
-14 123 -100 128 -100 4 0 21 -14 39 -30 18 -17 36 -30 41 -30 5 0 15 -6 21
-14 6 -7 64 -49 129 -92 64 -43 119 -81 122 -84 3 -3 14 -10 25 -17 91 -54
191 -118 193 -125 2 -4 8 -8 12 -8 5 0 57 -28 117 -63 201 -117 465 -255 681
-355 102 -47 112 -54 113 -79 0 -16 2 -37 4 -48 2 -11 7 -42 11 -70 4 -27 8
-57 9 -65 1 -8 5 -26 9 -40 3 -14 8 -41 10 -60 8 -60 58 -240 93 -330 38 -100
47 -120 55 -120 5 0 8 -8 8 -18 0 -10 9 -28 20 -40 11 -12 20 -25 20 -29 0 -5
19 -27 43 -50 67 -67 75 -73 90 -73 7 0 17 -3 21 -7 3 -4 17 -8 29 -10 12 -2
33 -7 47 -13 23 -8 46 -13 135 -26 57 -9 189 -5 239 7 120 27 213 115 243 229
8 30 10 258 3 280 -4 11 3 15 25 14 28 -1 90 -10 90 -14 0 -1 9 -3 20 -4 36
-5 116 -17 138 -22 12 -3 40 -7 62 -10 77 -11 90 -13 90 -14 0 -2 64 -9 125
-14 30 -3 55 -6 55 -6 0 -2 57 -9 215 -26 86 -9 295 -22 437 -28 56 -2 106 -6
110 -8 13 -6 570 -2 693 6 243 15 327 21 400 31 81 10 157 18 187 19 18 1 33
3 33 6 0 3 10 5 23 6 24 0 108 11 143 18 12 2 39 7 60 10 22 4 64 11 94 18 30
6 62 12 70 13 8 1 26 5 40 8 14 4 36 9 50 11 14 3 36 8 50 11 14 3 36 8 50 11
14 2 32 7 40 11 8 3 26 7 40 8 14 1 25 3 25 4 0 2 7 4 50 15 11 2 32 9 48 15
15 6 27 9 27 6 0 -2 18 2 40 10 22 8 42 15 45 15 7 1 23 5 120 36 127 39 348
121 425 156 36 17 71 31 78 32 7 1 18 8 24 14 7 7 17 12 23 12 12 0 264 128
361 184 129 74 327 207 411 276 7 6 15 10 18 10 3 0 20 13 38 29 17 16 57 51
87 77 113 96 151 136 235 244 27 36 53 67 57 68 5 2 8 10 8 18 0 8 5 14 10 14
6 0 10 7 10 15 0 8 5 15 10 15 6 0 10 7 10 15 0 8 3 15 8 15 4 0 21 23 37 50
17 27 33 50 38 50 4 0 7 4 7 9 0 5 19 42 43 83 59 100 147 276 147 293 0 8 5
15 10 15 6 0 10 8 10 18 0 10 4 22 8 27 14 17 69 164 107 289 33 111 44 152
60 231 3 17 9 44 12 60 4 17 7 40 7 53 1 12 3 22 6 22 3 0 6 8 6 18 1 9 4 42
8 72 27 213 27 537 0 715 -3 22 -7 54 -9 70 -2 17 -5 39 -8 50 -2 11 -8 38
-12 60 -4 22 -9 49 -11 60 -2 11 -15 65 -30 120 -14 55 -28 112 -31 128 -3 15
-9 30 -14 33 -5 3 -9 11 -9 19 0 8 -5 26 -12 42 -6 15 -10 34 -9 41 1 6 -4 12
-10 12 -7 0 -10 3 -6 6 5 6 -13 60 -50 144 -8 19 -19 44 -23 55 -19 49 -175
360 -182 363 -4 2 -8 10 -8 18 0 8 -4 14 -10 14 -5 0 -10 4 -10 10 0 5 -18 39
-40 75 -22 36 -40 70 -40 75 0 6 -4 10 -10 10 -5 0 -10 6 -10 14 0 8 -4 16 -8
18 -4 2 -41 53 -82 113 -40 61 -76 112 -80 115 -3 3 -17 21 -30 40 -27 38 -48
65 -67 85 -7 8 -13 16 -13 19 0 6 -38 52 -75 91 -11 12 -33 39 -50 61 -16 21
-50 61 -75 88 -25 27 -72 78 -105 114 -118 128 -324 330 -443 435 -18 15 -32
32 -32 37 0 6 -5 10 -10 10 -10 0 -31 17 -114 93 -17 16 -98 83 -181 150 -82
66 -152 124 -155 127 -3 3 -58 45 -122 93 -64 48 -124 94 -132 102 -8 8 -19
15 -25 15 -6 0 -11 4 -11 8 0 5 -12 15 -27 23 -16 8 -39 24 -53 37 -14 12 -33
25 -42 28 -10 3 -18 10 -18 15 0 5 -6 9 -14 9 -8 0 -16 3 -18 8 -8 20 -601
419 -643 433 -5 1 -19 11 -29 21 -11 10 -26 18 -33 18 -7 0 -13 5 -13 10 0 6
-4 10 -9 10 -12 0 -173 101 -183 115 -4 5 -8 7 -8 3 0 -6 -104 54 -180 102 -8
6 -22 13 -30 17 -8 4 -37 20 -65 36 -47 28 -94 54 -280 154 -84 46 -606 307
-615 308 -3 0 -30 12 -60 27 -94 45 -429 188 -550 235 -63 24 -124 48 -135 53
-28 13 -237 88 -255 92 -8 2 -17 5 -20 8 -5 6 -376 128 -445 147 -5 1 -63 18
-128 37 -143 43 -342 96 -380 102 -15 2 -37 8 -47 14 -11 6 -20 8 -20 6 0 -3
-10 -2 -23 3 -13 5 -39 12 -58 15 -19 3 -62 12 -96 21 -34 9 -74 18 -90 20
-36 5 -84 15 -103 20 -8 2 -29 7 -46 9 -17 3 -66 13 -110 21 -43 9 -97 18
-119 19 -22 2 -51 6 -65 10 -14 3 -41 8 -60 11 -19 2 -46 7 -60 9 -14 3 -51 7
-82 10 -32 3 -68 8 -80 10 -13 3 -45 8 -73 10 -27 3 -81 9 -120 15 -38 5 -77
9 -85 9 -8 0 -31 3 -50 6 -19 3 -62 8 -95 11 -33 3 -87 8 -120 10 -33 3 -83 7
-111 9 -27 1 -56 6 -62 10 -7 4 -12 2 -12 -4 0 -6 -5 -8 -11 -4 -12 7 -124 13
-355 18 -78 2 -146 6 -151 9 -6 4 -13 4 -16 0z m1733 -5504 c8 -1 33 -5 55
-11 l40 -9 0 -287 c0 -158 4 -293 9 -299 5 -8 4 -13 -3 -13 -7 0 -9 -5 -6 -10
6 -9 9 -185 19 -1025 1 -116 5 -216 9 -222 4 -6 3 -14 -1 -17 -10 -6 -9 -36 2
-54 4 -6 3 -12 -1 -12 -5 0 -9 -9 -9 -20 0 -11 4 -20 8 -20 4 0 3 -11 -2 -25
-6 -16 -6 -25 0 -25 6 0 6 -9 0 -25 -5 -14 -6 -25 -2 -25 8 0 8 -137 1 -145
-5 -4 -59 8 -99 21 -8 3 -16 5 -17 5 -10 -2 -304 109 -403 152 -14 5 -27 11
-30 11 -17 4 -350 174 -423 216 -48 27 -90 50 -93 50 -2 0 -10 5 -17 10 -21
19 -188 120 -197 120 -4 0 -10 3 -12 8 -1 4 -30 25 -63 48 -131 88 -200 138
-203 146 -2 4 -8 8 -13 8 -6 0 -24 13 -42 30 -18 16 -35 30 -39 30 -5 0 -16 8
-26 18 -10 9 -31 26 -46 37 -16 11 -33 25 -40 30 -6 6 -38 32 -71 59 -33 27
-65 54 -70 60 -6 6 -39 36 -75 66 -36 30 -83 72 -104 92 -22 21 -43 38 -48 38
-5 0 -6 5 -3 10 3 6 2 10 -2 10 -14 0 -101 85 -128 125 -38 55 -75 132 -75
154 0 11 -4 22 -8 25 -20 12 -1 142 26 186 19 30 103 110 116 110 5 0 17 6 25
13 14 12 119 58 146 64 6 1 20 4 32 7 29 8 36 9 168 40 61 14 121 27 135 30
14 2 45 9 70 15 25 5 60 13 79 16 19 3 38 8 43 11 4 3 23 6 41 8 18 2 42 6 53
9 10 3 35 8 54 11 19 3 46 8 60 11 41 9 123 25 155 30 17 3 41 7 55 10 14 3
41 7 60 10 19 3 49 8 65 11 17 3 41 7 55 9 14 2 36 6 50 9 14 2 48 7 75 11 28
3 86 10 130 16 108 15 128 17 214 23 41 3 75 7 77 8 2 3 205 0 244 -3z"/>
</g>
</svg>
