<?xml version="1.0" standalone="no"?>
<!DOCTYPE svg PUBLIC "-//W3C//DTD SVG 20010904//EN"
 "http://www.w3.org/TR/2001/REC-SVG-20010904/DTD/svg10.dtd">
<svg version="1.0" xmlns="http://www.w3.org/2000/svg"
 width="16.000000pt" height="16.000000pt" viewBox="0 0 16.000000 16.000000"
 preserveAspectRatio="xMidYMid meet">
<metadata>
Created by potrace 1.11, written by Peter Selinger 2001-2013
</metadata>
<g transform="translate(0.000000,16.000000) scale(0.006250,-0.006250)"
fill="#000000" stroke="none">
<path d="M1 2278 l1 -283 19 70 c39 141 38 138 13 191 -25 53 -20 65 19 39 30
-19 31 -18 47 67 14 72 30 81 30 18 0 -38 -16 -131 -27 -160 -11 -27 -1 -54
26 -80 41 -37 51 -59 38 -87 -5 -13 -15 -23 -20 -23 -6 0 -29 -8 -51 -19 -23
-10 -49 -21 -60 -25 -16 -6 -18 -14 -12 -79 4 -39 7 -117 8 -172 0 -69 7 -118
20 -159 23 -70 19 -86 -22 -86 -28 0 -30 -2 -30 -40 l0 -41 50 2 c27 2 52 0
55 -3 3 -3 11 -31 17 -62 15 -69 9 -76 -70 -76 l-53 0 3 -32 c3 -30 6 -33 38
-35 82 -5 120 -15 120 -32 0 -9 7 -25 15 -35 8 -11 15 -28 15 -37 0 -10 11
-31 25 -47 14 -17 25 -39 25 -51 0 -19 -6 -21 -59 -21 -65 0 -82 11 -57 39 18
19 21 41 7 41 -5 0 -11 -6 -14 -12 -3 -9 -19 -5 -55 15 -57 31 -83 37 -35 7
33 -20 48 -58 18 -46 -48 19 -45 56 -45 -503 l0 -521 301 0 301 0 20 25 c25
32 34 32 42 0 l6 -25 533 0 c475 1 528 2 498 15 -18 8 -44 15 -57 15 -14 0
-28 9 -35 21 -10 20 -17 21 -70 15 -36 -3 -59 -2 -59 4 0 6 -8 10 -18 10 -9 0
-23 9 -30 21 -10 16 -21 20 -42 17 -23 -4 -30 0 -32 16 -2 16 -10 21 -36 21
-18 0 -36 5 -40 11 -4 5 -23 16 -42 24 -19 8 -54 34 -77 57 -43 43 -54 77 -30
86 10 4 10 7 0 18 -11 11 -13 11 -13 -2 0 -7 -9 1 -20 19 -11 17 -27 32 -36
32 -17 0 -80 48 -127 99 -18 18 -44 39 -59 47 -54 28 -217 218 -218 255 0 8
-5 20 -11 26 -16 16 -29 84 -19 103 11 21 102 18 136 -5 39 -25 160 -39 223
-25 91 20 177 67 195 105 9 18 20 35 25 37 5 2 12 18 16 37 6 29 5 33 -9 28
-9 -4 -16 -2 -16 3 0 6 9 10 20 10 13 0 18 5 14 15 -5 11 -2 13 10 9 13 -5 16
1 16 27 0 43 -49 159 -66 159 -7 0 -24 14 -36 31 -22 30 -24 30 -88 24 -72 -7
-106 -20 -219 -83 -25 -14 -57 -33 -70 -44 -13 -10 -29 -18 -36 -18 -7 0 -24
-11 -39 -25 -28 -26 -42 -32 -30 -14 4 8 0 9 -15 4 -12 -4 -21 -2 -21 4 0 19
66 136 94 166 16 17 34 41 41 55 17 33 102 113 140 133 17 8 60 21 95 27 87
17 250 81 250 99 0 14 89 62 145 78 127 36 199 53 204 47 3 -3 1 -8 -5 -12 -6
-4 -14 -18 -17 -32 -4 -14 -24 -44 -46 -68 -21 -23 -46 -57 -54 -75 -9 -18
-30 -51 -47 -72 -30 -38 -31 -43 -26 -103 7 -73 13 -86 58 -128 18 -17 38 -40
45 -50 9 -14 14 -16 20 -7 6 9 20 9 51 2 45 -10 75 -3 51 12 -10 6 3 15 41 33
127 57 231 169 228 243 -1 18 5 41 13 50 36 46 40 62 21 84 -12 12 -17 29 -14
44 4 21 10 25 38 25 18 0 36 -5 39 -10 4 -6 10 -8 14 -5 19 11 95 -86 119
-150 46 -128 64 -171 76 -184 7 -9 21 -54 31 -101 9 -47 22 -92 29 -100 25
-34 36 -61 36 -93 0 -34 1 -34 52 -41 74 -9 86 -10 146 -8 48 2 52 4 52 27 0
23 -4 25 -42 25 -60 0 -85 9 -91 31 -3 10 -1 19 4 19 4 0 6 7 3 15 -5 12 5 15
60 15 l66 0 0 55 0 55 -145 0 c-80 0 -145 3 -145 7 0 4 5 21 12 39 9 27 9 35
-5 48 -14 15 -16 14 -20 -2 -3 -12 -5 -10 -7 8 -1 14 -2 29 0 35 1 5 -4 28
-10 51 -10 34 -9 46 3 65 8 13 22 49 31 80 16 54 16 60 0 115 -13 47 -29 72
-78 123 -147 154 -347 225 -615 219 -91 -3 -104 -1 -106 14 -2 9 -8 33 -15 53
-20 62 -8 66 140 50 152 -16 159 -17 288 -62 57 -19 106 -32 110 -28 14 14
-104 100 -223 162 -55 28 -148 57 -171 52 -5 -1 -11 0 -14 1 -9 5 -52 8 -208
16 l-153 7 -19 37 c-10 20 -26 42 -34 49 -9 7 -14 17 -11 21 8 13 313 -10 480
-36 73 -12 210 -91 287 -167 l71 -70 196 7 c108 4 209 4 225 0 l29 -7 -7 -283
-6 -284 25 0 c18 0 26 -7 31 -25 5 -19 13 -25 35 -25 26 0 29 3 29 33 0 28 -4
32 -27 34 -54 3 -61 40 -52 278 4 105 8 216 8 248 l1 57 35 0 35 0 0 165 0
165 -380 0 c-333 0 -379 -2 -374 -15 4 -10 0 -15 -11 -15 -11 0 -15 5 -11 15
5 13 -66 15 -603 15 l-609 0 -31 -42 c-17 -24 -36 -50 -43 -57 -7 -8 -15 -24
-18 -35 -8 -29 -38 -32 -62 -6 l-21 22 29 23 c28 22 28 24 12 42 -17 18 -17
20 -1 36 16 16 12 17 -72 17 -50 0 -110 -5 -135 -11 -31 -7 -46 -7 -48 0 -2 7
-39 11 -93 11 l-89 0 1 -282z m1183 129 c16 -22 18 -31 9 -46 -10 -16 -1 -29
67 -96 l79 -77 30 15 c34 17 36 15 67 -43 10 -19 19 -46 19 -60 0 -17 6 -26
20 -28 17 -2 65 -60 65 -77 0 -6 -55 -34 -101 -50 -60 -21 -46 0 16 26 30 12
55 27 55 31 0 21 -23 49 -35 44 -7 -2 -21 4 -31 15 -21 23 -40 24 -89 3 -36
-15 -36 -16 -20 -34 13 -15 15 -23 7 -33 -14 -16 11 -57 34 -57 18 0 18 -16
-1 -23 -20 -8 -78 72 -64 89 13 16 -8 29 -41 25 -25 -2 -25 -2 -4 13 12 8 43
23 70 32 93 31 110 52 76 94 l-18 22 -52 -18 c-29 -10 -52 -22 -52 -26 0 -4 7
-5 15 -2 12 5 15 -2 15 -32 -1 -32 -3 -36 -13 -24 -24 30 -56 52 -65 46 -6 -3
-7 -20 -2 -40 6 -30 5 -33 -11 -29 -14 4 -19 0 -19 -13 -1 -18 -1 -18 -16 1
-8 11 -19 26 -23 34 -5 8 -16 11 -25 8 -14 -6 -14 -10 3 -40 18 -33 18 -34 0
-45 -28 -18 -36 -15 -50 22 -12 29 -17 32 -37 25 l-23 -9 27 -35 c14 -19 29
-35 33 -35 3 0 30 9 59 20 62 24 67 20 12 -11 -41 -23 -51 -43 -25 -52 19 -8
55 -80 47 -94 -9 -13 -176 -93 -196 -93 -21 0 -43 74 -27 93 15 19 4 47 -18
47 -23 0 -63 94 -48 109 6 6 16 11 22 11 7 0 20 9 30 20 15 17 17 32 12 102
-6 97 -13 118 -37 118 -19 0 -50 40 -50 63 0 20 235 128 269 124 8 -1 23 -15
35 -30z m-309 -47 c-3 -5 -11 -10 -16 -10 -6 0 -7 5 -4 10 3 6 11 10 16 10 6
0 7 -4 4 -10z m-19 -52 c7 -18 17 -47 24 -64 13 -30 12 -32 -39 -80 -75 -70
-172 -169 -201 -205 -14 -17 -35 -43 -48 -57 -112 -132 -224 -359 -257 -524
-19 -97 -19 -254 0 -378 18 -115 18 -120 4 -120 -15 0 -63 112 -85 195 -25 98
-25 312 0 415 10 41 22 80 26 85 4 6 13 31 21 58 7 26 16 47 20 47 4 0 10 12
13 26 11 41 87 171 128 217 20 23 38 45 38 49 0 4 20 30 45 58 25 28 45 54 45
58 0 13 196 212 208 212 6 0 16 9 22 20 15 28 23 25 36 -12z m384 -327 c0 -10
-42 -23 -49 -15 -7 6 20 24 37 24 6 0 12 -4 12 -9z m-327 -76 c30 -46 33 -56
21 -66 -8 -7 -13 -17 -11 -23 3 -6 -17 -25 -44 -41 -27 -16 -49 -33 -49 -37 0
-4 -6 -8 -14 -8 -7 0 -16 -9 -19 -21 -3 -11 -15 -23 -26 -26 -11 -3 -22 -10
-24 -17 -3 -6 -30 -41 -61 -78 -31 -36 -56 -70 -56 -77 0 -6 -4 -11 -9 -11 -5
0 -13 -10 -17 -22 -4 -13 -10 -25 -15 -28 -13 -9 -75 -152 -87 -200 -33 -135
-45 -393 -23 -490 21 -91 24 -100 32 -100 5 0 9 -10 9 -21 0 -12 10 -30 22
-40 l21 -19 -21 0 c-25 0 -83 49 -111 93 -22 36 -46 104 -56 160 -4 20 -10 37
-14 37 -3 0 -3 55 1 122 8 149 48 316 107 447 23 50 41 94 41 97 0 3 24 36 53
73 28 38 59 78 67 91 25 37 90 118 98 122 4 2 27 28 51 58 50 62 70 80 86 80
7 0 28 -25 48 -55z m12 -775 c-3 -5 -10 -10 -16 -10 -5 0 -9 5 -9 10 0 6 7 10
16 10 8 0 12 -4 9 -10z m171 -11 c7 -12 -15 -59 -28 -59 -4 0 -8 16 -8 35 0
35 20 49 36 24z m-296 -615 c0 -8 -5 -12 -10 -9 -6 4 -8 11 -5 16 9 14 15 11
15 -7z"/>
<path d="M1030 2364 c-58 -24 -109 -45 -113 -46 -17 -7 6 -38 28 -38 27 0 31
-13 41 -142 3 -49 9 -88 13 -88 3 1 26 11 51 23 l45 22 -3 55 c-1 30 -5 70 -8
88 -5 33 -5 33 58 -32 l63 -65 45 15 c25 9 49 19 53 23 4 5 -29 45 -75 89 -70
69 -81 84 -72 99 13 21 8 44 -9 42 -7 -1 -59 -21 -117 -45z"/>
<path d="M1112 2165 c3 -55 19 -66 53 -41 19 14 19 15 -18 52 l-38 39 3 -50z"/>
<path d="M1185 2110 c-3 -5 -2 -10 4 -10 5 0 13 5 16 10 3 6 2 10 -4 10 -5 0
-13 -4 -16 -10z"/>
<path d="M965 2008 c-22 -11 -41 -22 -43 -23 -5 -5 29 -76 36 -73 4 2 24 10
44 17 39 15 39 17 21 84 -5 21 -9 21 -58 -5z"/>
<path d="M1060 1969 c0 -5 5 -7 10 -4 6 3 10 8 10 11 0 2 -4 4 -10 4 -5 0 -10
-5 -10 -11z"/>
<path d="M1043 1929 c-39 -19 -43 -25 -43 -58 0 -20 -3 -46 -6 -58 -10 -36 18
-38 83 -8 76 36 96 54 82 72 -6 7 -20 13 -29 13 -12 0 -21 10 -25 30 -8 36 -8
36 -62 9z"/>
<path d="M2161 1303 c0 -16 4 -37 9 -48 8 -17 9 -15 8 10 0 17 3 38 7 48 5 12
3 17 -9 17 -11 0 -16 -9 -15 -27z"/>
<path d="M690 1240 c0 -5 7 -10 15 -10 8 0 15 5 15 10 0 6 -7 10 -15 10 -8 0
-15 -4 -15 -10z"/>
<path d="M1650 1184 c1 -26 29 -59 66 -77 55 -28 77 -87 33 -87 -10 0 -19 -5
-19 -11 0 -6 -11 -33 -25 -61 -14 -27 -25 -55 -25 -61 -1 -24 -47 -45 -112
-52 -59 -6 -69 -5 -97 16 -16 12 -28 26 -25 31 3 4 1 8 -3 8 -5 0 -17 14 -27
31 -14 24 -20 28 -32 18 -8 -6 -14 -9 -14 -5 0 3 -10 -4 -21 -15 -18 -18 -21
-30 -17 -81 4 -55 7 -62 48 -99 76 -69 143 -85 227 -53 36 14 48 15 71 5 25
-12 26 -13 7 -23 -19 -10 -92 -84 -164 -166 -29 -33 -56 -79 -48 -83 11 -7 70
-5 101 3 21 5 68 11 105 14 73 5 129 20 149 40 7 8 36 29 65 48 29 20 65 47
82 61 l30 26 -25 20 -25 19 22 6 c13 4 20 11 16 20 -2 7 -1 19 3 26 5 7 9 18
10 23 2 6 6 24 9 42 9 41 -6 49 -113 58 -68 6 -80 10 -71 21 9 11 8 18 -1 29
-12 15 -16 118 -4 136 4 6 20 8 39 5 42 -8 52 7 25 36 -12 13 -29 35 -38 51
-9 15 -24 27 -33 27 -9 0 -24 9 -33 19 -10 11 -37 24 -60 29 -22 5 -49 13 -58
17 -14 5 -18 2 -18 -11z"/>
<path d="M2150 1050 c0 -5 5 -10 10 -10 6 0 10 5 10 10 0 6 -4 10 -10 10 -5 0
-10 -4 -10 -10z"/>
<path d="M2358 973 c-1 -5 -3 -37 -4 -73 -9 -205 -9 -210 -21 -206 -13 5 -28
-28 -19 -43 4 -5 2 -11 -4 -13 -6 -2 -16 -31 -22 -65 -9 -48 -14 -60 -24 -52
-10 8 -13 -6 -16 -60 -2 -41 1 -73 7 -75 6 -3 4 -9 -4 -14 -7 -5 -11 -14 -8
-19 6 -9 0 -32 -26 -106 -11 -31 -79 -107 -96 -107 -17 0 -13 29 9 57 25 32
25 43 0 43 -12 0 -26 -12 -36 -31 -19 -38 -63 -81 -78 -76 -6 2 -12 16 -14 30
-4 32 -5 32 -38 11 -17 -12 -21 -20 -14 -29 7 -8 3 -19 -15 -35 -31 -29 -22
-44 21 -35 37 6 42 -1 21 -30 -10 -13 -22 -16 -41 -13 -18 4 -29 1 -33 -8 -3
-8 -8 -12 -12 -9 -4 2 -21 0 -37 -4 -18 -5 48 -9 179 -10 228 -2 220 -4 192
62 -19 45 -19 57 -1 57 8 0 23 11 33 25 17 23 21 24 56 14 21 -5 35 -14 32
-19 -5 -9 22 -15 100 -24 22 -2 51 -7 64 -11 16 -6 22 -5 17 3 -3 6 -2 13 4
17 5 3 10 1 10 -4 0 -6 5 -11 10 -11 7 0 10 150 10 429 l0 428 -67 6 c-90 9
-133 9 -135 0z"/>
<path d="M1840 451 c0 -11 4 -21 9 -21 18 0 21 18 6 30 -13 10 -15 9 -15 -9z"/>
<path d="M2069 461 c-15 -3 -44 -21 -65 -39 -32 -28 -44 -32 -71 -27 -25 4
-33 2 -33 -8 0 -16 -57 -47 -87 -47 -26 -1 -56 -46 -49 -75 5 -21 2 -26 -21
-31 -125 -28 -136 -36 -98 -66 54 -44 152 -69 185 -48 13 8 12 11 -5 24 -17
13 -17 15 -4 16 21 0 28 19 22 53 -3 16 -1 27 6 27 6 0 11 -7 11 -16 0 -37 63
-58 84 -29 6 8 29 18 51 20 25 3 46 14 56 27 11 14 18 17 23 9 5 -8 20 4 42
33 30 40 34 52 34 106 0 56 -2 61 -26 70 -14 6 -26 9 -27 9 -1 -1 -14 -4 -28
-8z m-12 -98 c2 -6 -9 -18 -26 -26 -26 -13 -30 -13 -34 2 -2 9 -2 21 0 26 5
15 55 13 60 -2z"/>
<path d="M1472 343 c2 -10 10 -18 18 -18 8 0 16 8 18 18 2 12 -3 17 -18 17
-15 0 -20 -5 -18 -17z"/>
<path d="M1583 263 c-7 -3 -13 -8 -13 -13 0 -11 28 -21 34 -12 7 12 -8 29 -21
25z"/>
<path d="M1362 180 c0 -14 2 -19 5 -12 2 6 2 18 0 25 -3 6 -5 1 -5 -13z"/>
<path d="M1505 90 c-3 -5 -1 -10 4 -10 6 0 11 5 11 10 0 6 -2 10 -4 10 -3 0
-8 -4 -11 -10z"/>
</g>
</svg>
