<?xml version="1.0" encoding="utf-8"?>
<!-- Generator: Adobe Illustrator 20.1.0, SVG Export Plug-In . SVG Version: 6.00 Build 0)  -->
<svg version="1.1" id="Layer_1" xmlns="http://www.w3.org/2000/svg" xmlns:xlink="http://www.w3.org/1999/xlink" x="0px" y="0px"
	 width="610.3px" height="316.7px" viewBox="0 0 610.3 316.7" style="enable-background:new 0 0 610.3 316.7;" xml:space="preserve"
	>
<style type="text/css">
	.st0{fill:none;stroke:#0466CE;stroke-width:2;stroke-linecap:round;stroke-linejoin:round;stroke-miterlimit:10;}
	.st1{fill:none;stroke:#E5EEFD;stroke-width:2;stroke-linecap:round;stroke-linejoin:round;stroke-miterlimit:10;}
	.st2{fill:none;stroke:#FF9A2D;stroke-width:2;stroke-linecap:round;stroke-linejoin:round;stroke-miterlimit:10;}
</style>
<path class="st0" d="M421.6,258.7c0,0,0.4-71.1,12.7-127.7"/>
<path class="st1" d="M311.8,308.6c0,0,0.7-113.2-16-135.9"/>
<path class="st2" d="M532.9,290.7c0,0,3.7-65.9,22-80"/>
<path class="st2" d="M209.5,315.3c0,0-16.8-165.6-36.1-186.5"/>
<path class="st0" d="M39.7,282.2c0,0,4.8-22,1.1-51"/>
<path class="st0" d="M436.1,117.6c0,0-11.2,16-10.1,21.2"/>
<path class="st2" d="M560.5,201c0,0-23.1,9.3-23.1,16.4"/>
<path class="st1" d="M298.8,160.8c0,0,36.1-0.4,36.5,27.5"/>
<path class="st2" d="M172.2,116.2c0,0-26.4-57.7-67.4-48.4"/>
<path class="st0" d="M43.1,210.7c0,0,7.4-19.4,13.4-20.5"/>
<path class="st0" d="M442.5,115.8c0,0,20.5-8.9,25.3-5.2"/>
<path class="st2" d="M567.5,198.4c0,0,13.8-2.6,16,0"/>
<path class="st1" d="M288,156c0,0-27.2,7.1-30.5,15.3"/>
<path class="st2" d="M181.5,120.3c0,0,23.5-13,49.5,29"/>
<path class="st0" d="M43.1,223c0,0,11.2,8.2,18.2,21.2"/>
<path class="st0" d="M436.5,123.2c0,0,9.7,13.8,10.4,22.3"/>
<path class="st1" d="M293.2,161.9c0,0-7.1,13-7.4,17.5"/>
<path class="st2" d="M562,195.1c0,0-4.8-13-19.4-30.5"/>
<path class="st2" d="M164.8,120.3c0,0-90.8,4.8-105,43.6"/>
<path class="st0" d="M39.4,217.4c0,0-18.6,8.9-24.9,16.4"/>
<path class="st0" d="M426.5,110.9c0,0-15.3-30.9-32-15.3"/>
<path class="st1" d="M292.8,152.6c0,0,10.4-23.1,25.7-31.3"/>
<path class="st2" d="M562.3,203.3c0,0,4.1,8.2,3.7,14.5"/>
<path class="st2" d="M177.4,113.9c0,0,57.7-45.4,73.7-38.3"/>
<path class="st0" d="M44.2,213.3c0,0,24.9-7.1,32.8,1.9"/>
<path class="st0" d="M426.8,122.9c0,0-26.1,23.8-23.5,30.9"/>
<path class="st1" d="M301,152.3c0,0,13-24.9,24.6-12.3"/>
<path class="st2" d="M564.9,192.5c0,0,15.3-14.1,18.2-13.4"/>
<path class="st2" d="M161.8,129.6c0,0-39.8,21.2-39.5,29"/>
<path class="st0" d="M40.1,227.1c0,0-4,8.3-8.1,12"/>
<path class="st0" d="M431.7,117.6c0,0-38.3-3-40.9,0"/>
<path class="st1" d="M296.6,157.5c0,0,12.7,7.4,14.9,14.9"/>
<path class="st2" d="M557.5,195.8c0,0-33.1-23.5-38.7-7.4"/>
<path class="st2" d="M173.4,101.6c0,0,40.6-66.6,61.4-68.1"/>
<path class="st0" d="M37.5,214.4c0,0,3-7.8-1.1-25.3"/>
<path class="st0" d="M438,106.9c0,0,19.4-27.5,23.8-24.6"/>
<path class="st1" d="M291.3,148.5c0,0-8.6-20.1-17.5-19.7"/>
<path class="st2" d="M562.7,189.9c0,0,1.1-14.5,4.1-15.3"/>
<path class="st2" d="M167.8,114.3c0,0-70.4-16.8-78.2-0.4"/>
<path class="st0" d="M42,219.3c0,0,23.5-1.9,26.1,0"/>
<path class="st0" d="M449.9,116.9c0,0,41.3-65.9,44.7-38.3"/>
<path class="st0" d="M436.5,112.1c0,0-30.5-45.8-36.9-45"/>
<path class="st2" d="M566.4,204.7c0,0,20.8,21.2,19.7,30.2"/>
<path class="st1" d="M286.1,167.5c0,0-28.3,14.1-28.7,27.2"/>
<path class="st2" d="M168.9,102.8c0,0,14.1-52.9,11.2-91.6"/>
<path class="st0" d="M32.3,211.4c0,0-15.6-24.2-25.3-24.2"/>
<path class="st0" d="M40.1,220.8c0,0-18.6,13.8-20.5,19"/>
<path class="st0" d="M436.9,102c0,0-5.6-19-1.5-22.7"/>
<path class="st0" d="M444.3,124.3c0,0,24.6,6,28.3,16.8"/>
<path class="st0" d="M423.9,119.1c0,0-53.6-32.8-55.8-4.1"/>
<path class="st2" d="M572.7,191.7c0,0,21.6-2.2,23.5,5.2"/>
<path class="st1" d="M292.5,145.2c0,0,4.1-11.5,2.6-18.2"/>
<path class="st2" d="M175.6,108.7c0,0,95.7-26.1,111.7,0"/>
<path class="st0" d="M49.8,213.7c0,0,12.3-22.7,27.5-23.5"/>
<path class="st0" d="M35.6,216.3c0,0-21.6-4.8-27.5,7.1"/>
<path class="st2" d="M568.3,192.5c0,0,3-22,7.4-25.3"/>
<path class="st0" d="M445.1,132.2c0,0,37.6,19,37.6,33.5"/>
<path class="st0" d="M429.4,123.2c0,0-47.3-1.5-47.3,35.4"/>
<path class="st1" d="M303.3,157.8c0,0,43.9-24.9,43.6-2.6"/>
<path class="st2" d="M160.7,106.9c0,0-109.4-20.1-119.1-13.4"/>
<path class="st0" d="M44.9,216.3c0,0,23.5,8.9,25.7,14.1"/>
<path class="st2" d="M571.3,206.2c0,0,29-10.1,38,3.7"/>
<path class="st0" d="M444,106.9c0,0-0.5-40.6,2.5-43.6"/>
<path class="st0" d="M448.8,104.6c0,0,27.9-9.7,37.6-0.4"/>
<path class="st1" d="M281.3,163.4c0,0-32-19.4-45-4.1"/>
<path class="st2" d="M168.9,92c0,0-31.3-90.8-49.9-91.2"/>
<path class="st2" d="M553.4,200.3c0,0-30.2-1.1-30.9,18.2"/>
<path class="st0" d="M454.4,125.1c0,0,36.1-23.8,55.5-3.7"/>
<path class="st1" d="M282,154.5c0,0-14.1-15.6-25.3-13.4"/>
<path class="st0" d="M31.2,218.5c0,0-24.6-13.8-30.5-7.8"/>
</svg>
