<?xml version="1.0" encoding="utf-8"?>
<!-- Generator: Adobe Illustrator 20.1.0, SVG Export Plug-In . SVG Version: 6.00 Build 0)  -->
<svg version="1.1" xmlns="http://www.w3.org/2000/svg" xmlns:xlink="http://www.w3.org/1999/xlink" x="0px" y="0px"
	 viewBox="0 0 568.3 160.3" style="enable-background:new 0 0 568.3 160.3;" xml:space="preserve">
<g id="Layer_2_2_">
	<g id="Layer_2">
		<path d="M141.9,41.9c0,0-38.7-35.7-89.2-40.9C52.7,1,4.8-5.9,0,16.2c0,0,1.3,4.4,13,3.9c0,0,6.6-3-6.1-5.6c0,0,42.2-13,101.4,19.6
			c59.1,32.6,42.2,69.2,28.2,75.3c-13.9,6.1-24.3,10-57.4,6.9l-0.5-37.8c0,0,57.9,3.5,30.9,13.9c0,0-0.5,7.4,13.5,1.3
			c13.9-6.1,3.9-30.9-44.8-29.6c0,0-0.5-27.4-8.6-28.2c0,0-4.4,0.5-5.6,29.6c0,0-44.8,6.6-37.8,24.8c6.9,18.3,37,30.9,37,30.9
			s0.9,11.3,5.2,13.9c0,0,12.6,4.8,10.5-6.9c0,0,47.8,10.8,75.7-14.4C154.5,113.8,187.1,82,141.9,41.9z M31.8,92c0,0-5.6-6.1,3-8.6
			c0,0,23.1-5.6,28.7-3.9l0.5,32.2C64,111.6,48.3,108.1,31.8,92z"/>
	</g>
</g>
<g id="Layer_1">
	<path d="M241,72.9c0,0,1.8-9.2-25.7-8.4c0,0-24.2,1.5-38.9,22.7s0.7,31.2,0.7,31.2s-5.9,5.1,4,15.8l4.8-0.4c0,0,4.4-2.2,5.1-6.6
		c0,0,19.1,9.2,40.3-5.1c0,0,17.2-10.3,24.2-23.5C262.7,85.4,255.3,74,241,72.9z M185.3,104.8c0,0-5.9-3.7,4-16.5
		c0,0,9.5-8.1,19.4-7C208.7,81.4,189.3,94.2,185.3,104.8z M228.2,110.7c0,0-12.1,6.2-29,2.6c0,0,26-32.3,42.9-27.1
		C242.1,86.1,253.9,93.8,228.2,110.7z"/>
	<path d="M331.6,74.6c0,0,1.8-9.2-25.7-8.4c0,0-24.2,1.5-38.9,22.7s0.7,31.2,0.7,31.2s-5.9,5.1,4,15.8l4.8-0.4c0,0,4.4-2.2,5.1-6.6
		c0,0,19.1,9.2,40.3-5.1c0,0,17.2-10.3,24.2-23.5C353.2,87.1,345.9,75.7,331.6,74.6z M275.8,106.5c0,0-5.9-3.7,4-16.5
		c0,0,9.5-8.1,19.4-7C299.3,83.1,279.9,95.9,275.8,106.5z M318.8,112.4c0,0-12.1,6.2-29,2.6c0,0,26-32.3,42.9-27.1
		C332.7,87.8,344.4,95.5,318.8,112.4z"/>
	<g id="Layer_2_1_">
		<g>
			<path d="M390.2,115.7c31,0.8,37.4-15,28.5-18.8s-8.6,0.8-8.6,0.8c16.3,6.9-19.3,8.4-19.3,8.4c-2,0.2-8-0.2-10.3-0.3
				c-10.1-0.3-18-2.3-18-2.3c-5.5-1.6-1.9-5.5-1.9-5.5c11.2-12.5,30-15.5,30-15.5s21.3-3.7,36.7,4.4c8.9,3.9,19.7,27.1-18,47.9
				c-37.7,20.8-64.5,12.5-64.5,12.5c8.1-1.7,3.9-3.6,3.9-3.6c-7.5-0.3-8.3,2.5-8.3,2.5c3.1,14.1,33.5,9.7,33.5,9.7
				c32.1-3.3,56.8-26,56.8-26c28.7-25.4,8-45.7,8.1-45.7c-17.7-16.1-48.2-9.2-48.2-9.2c-7.6,2.9-10,4.5-10,4.5s-19.1,8-23.5,19.7
				c-4.5,11.6,24.1,15.8,24.1,15.8L390.2,115.7z"/>
			<g>
				<path d="M390.2,119.5c10.7,0.2,35.2-1.6,36-16.9c0.6-10.4-20.1-16.2-19.8-4.9c0,1.2,0.7,2.8,1.9,3.3c0.7,0.3,2.6,1.3,2.7,1.3
					c0.1,0,0.2-3.2,0.4-3.1c0.1,0.1-0.2,0.2-0.3,0.2c-0.1,0-1.2,0.5-1.4,0.5c-2.8,0.9-5.9,1.3-8.9,1.6c-5.4,0.6-10.8,1-16.3,0.7
					c-6-0.3-12-0.6-17.9-1.7c-1-0.2-2-0.6-3-0.7c0.1,0-0.4,1.1-0.3,1c0.7-1,1.8-1.9,2.7-2.7c6.7-6.1,15.9-10,24.8-11.7
					c5.6-1.1,11.9-1.1,17.7-0.6c7.2,0.6,17.5,2,21.6,8.9c11,18.7-18.3,35.3-31.1,41.2c-15.3,7-36.2,12.9-53.1,7.8c0,2.5,0,4.9,0,7.4
					c2.8-0.7,6.8-1.6,7.6-4.9c0.6-2.2-0.7-4.5-2.6-5.5c-3.7-2-11.7-0.4-13.7,3.7c-2.6,5.1,4.1,10.9,8.1,12.8
					c5.4,2.6,11.8,3.2,17.7,3.3c25.5,0.3,50.9-10.7,70-27.3c10.7-9.3,19.4-22.7,16.1-37.4c-2.2-9.6-8.5-16.5-17.2-20.6
					c-12.4-5.8-26.9-6.3-40.2-4c-7.5,1.3-16.6,6.6-23,10.7c-6.3,4.1-14,10.1-15.6,17.9c-1.3,6.3,3.8,10.9,8.8,13.5
					C370.7,117.5,380.4,118.5,390.2,119.5c4.9,0.5,4.9-7.2,0-7.6c-1.7-0.2-3.4-0.3-5-0.5c-1-0.1-2-0.2-3-0.3c-1.2-0.1-0.7-0.1-0.2,0
					c-2.9-0.4-5.7-1.1-8.5-1.9c-3.8-1.1-8.4-2.4-11.4-5.1c-3.8-3.5,0.9-8,3.7-10.7c5.4-5.2,12.1-8.3,18.6-11.6
					c7.5-3.8,14.8-4.6,23.1-4.4c17.4,0.4,39.6,9.6,33.9,30.8c-2.6,9.4-10,16.6-17.5,22.4c-9.6,7.4-20.5,13.5-32,17.4
					c-4.1,1.4-8.3,2.5-12.6,3.3c-2.1,0.4-4.2,0.7-6.3,0.9c0.8-0.1,0.8-0.1,0,0c-3.9,0.4-7.9,0.6-11.8,0.5
					c-4.7-0.2-10.6-0.6-14.5-3.6c-0.5-0.4-1.6-2.2-2.1-2.5c-0.7-0.3,0.6-1.7-0.5,0.4c0,0-0.3,1.2-0.4,1.2c-0.1-0.1,2.2-0.7,1.6-0.5
					c1.2-0.3,1.2,0,1.6-0.6c0.2-0.3-0.2,0.2-0.1-0.2c0-1.4,0-2.7,0-4.1c-1,0.3-1.9,0.6-2.9,0.8c-3.8,0.9-3.5,6.3,0,7.4
					c19.5,5.9,43.1-1,60.6-9.3c17.2-8.2,46.8-29.6,31.4-52.1c-6.1-8.8-18.8-10.9-28.7-11.5c-7.4-0.5-14.9-0.1-22.1,1.9
					c-5.7,1.5-11.2,3.8-16.3,6.8c-4.4,2.6-10.7,6.5-12.6,11.6c-4.3,11.9,20.8,11.2,26.4,11.5c8.5,0.4,17,0,25.4-1.6
					c3.2-0.6,7.8-1.4,9.5-4.6c2.5-4.4-1.9-7.6-5.4-9.1c0.6,1.1,1.3,2.2,1.9,3.3c0-0.7-0.3,0.8-0.3,0.7c0.1,1.4-1.5,0.1,0.5,0.9
					c1.3,0.5,3.4,0.6,4.2,2c0.4,0.7-0.1,2-0.9,3.2c-5.4,7.5-19.3,7.5-27.3,7.4C385.3,111.8,385.3,119.4,390.2,119.5z"/>
			</g>
		</g>
	</g>
	<path d="M463.5,11.5c0,0,8.3,2,9.9,34c0,0,0.6,79.2,1.6,82.7c1,3.5-3.1,10.2-14.8,5.3c0,0-6.8-7.6-4.3-28.9
		C455.9,104.6,452.8,13.7,463.5,11.5z"/>
	<path d="M552.5,99c-19.8,20.7-28.7,20.2-28.7,20.2c-16.1,2.2-16.3-4.8-16.3-4.8c21.9-0.3,47.9-24.7,53.2-29.9
		c0.6-0.6,2.5-2.8,2.8-3.5c5.3-12.5-0.9-23.9-15.4-24.4c-14.9-0.6-32.4,9.2-32.4,9.2c-23,11.3-24.6,32.4-24.6,32.4
		c-4.2-1.6-8.3,1.1-8.3,1.1l-2.7,3.9c4.3,13.9,11.6,11.4,11.6,11.4s0.9,18.3,26.6,16.2s39.1-22.3,39.1-22.3c4.4-7.1,6-12.2,5.4-13.4
		C560.7,91,552.5,99,552.5,99z M523.8,74.4c27.4-13.8,28.2,0.2,28.2,0.2c-4,17.2-45,23.6-45,23.6C512.4,81.8,523.8,74.4,523.8,74.4z
		"/>
	<polygon points="568.3,87.5 568.3,87.5 568.3,87.5 	"/>
</g>
</svg>
