<?xml version="1.0" encoding="utf-8"?>
<!-- Generator: Adobe Illustrator 20.1.0, SVG Export Plug-In . SVG Version: 6.00 Build 0)  -->
<svg version="1.1" xmlns="http://www.w3.org/2000/svg" xmlns:xlink="http://www.w3.org/1999/xlink" x="0px" y="0px" width="144.9px"
	 height="119px" viewBox="0 0 144.9 119" style="enable-background:new 0 0 144.9 119;" xml:space="preserve">
<g id="Layer_1">
</g>
<g id="Layer_2">
	<path d="M123.6,36.9c0,0-33.6-31-77.4-35.5c0,0-41.5-6-45.7,13.2c0,0,1.1,3.8,11.3,3.4c0,0,5.7-2.6-5.3-4.9c0,0,36.6-11.3,88,17
		c51.3,28.3,36.6,60,24.5,65.3c-12.1,5.3-21.1,8.7-49.8,6l-0.4-32.8c0,0,50.2,3,26.8,12.1c0,0-0.4,6.4,11.7,1.1
		c12.1-5.3,3.4-26.8-38.9-25.7c0,0-0.4-23.8-7.5-24.5c0,0-3.8,0.4-4.9,25.7c0,0-38.9,5.7-32.8,21.5c6,15.9,32.1,26.8,32.1,26.8
		s0.8,9.8,4.5,12.1c0,0,10.9,4.2,9.1-6c0,0,41.5,9.4,65.7-12.5C134.5,99.2,162.8,71.6,123.6,36.9z M28.1,80.3c0,0-4.9-5.3,2.6-7.5
		c0,0,20-4.9,24.9-3.4L56,97.3C56,97.3,42.4,94.3,28.1,80.3z"/>
</g>
</svg>
