<?xml version="1.0" encoding="utf-8"?>
<!-- Generator: Adobe Illustrator 20.1.0, SVG Export Plug-In . SVG Version: 6.00 Build 0)  -->
<svg version="1.1" id="Layer_1" xmlns="http://www.w3.org/2000/svg" xmlns:xlink="http://www.w3.org/1999/xlink" x="0px" y="0px"
	 viewBox="0 0 960 560" style="enable-background:new 0 0 960 560;" xml:space="preserve">
<g id="Layer_2">
	<path d="M275.5,208.2c0,0-38.7-35.7-89.2-40.9c0,0-47.8-6.9-52.7,15.2c0,0,1.3,4.4,13,3.9c0,0,6.6-3-6.1-5.6
		c0,0,42.2-13,101.4,19.6c59.1,32.6,42.2,69.2,28.2,75.3c-13.9,6.1-24.3,10-57.4,6.9l-0.5-37.8c0,0,57.9,3.5,30.9,13.9
		c0,0-0.5,7.4,13.5,1.3c13.9-6.1,3.9-30.9-44.8-29.6c0,0-0.5-27.4-8.6-28.2c0,0-4.4,0.5-5.6,29.6c0,0-44.8,6.6-37.8,24.8
		c6.9,18.3,37,30.9,37,30.9s0.9,11.3,5.2,13.9c0,0,12.6,4.8,10.5-6.9c0,0,47.8,10.8,75.7-14.4C288.1,280.1,320.7,248.3,275.5,208.2z
		 M165.4,258.3c0,0-5.6-6.1,3-8.6c0,0,23.1-5.6,28.7-3.9l0.5,32.2C197.6,277.9,181.9,274.4,165.4,258.3z"/>
</g>
<path d="M342.7,225.1c-20.8,0-37.6,16.8-37.6,37.6s16.8,37.6,37.6,37.6s37.6-16.8,37.6-37.6S363.4,225.1,342.7,225.1z M342,285.4
	c-11.8,0-21.4-10.3-21.4-23c0-12.7,9.6-23,21.4-23c11.8,0,21.4,10.3,21.4,23C363.5,275.1,353.9,285.4,342,285.4z"/>
<path d="M425.4,225.2c-20.8,0-37.6,16.8-37.6,37.6s16.8,37.6,37.6,37.6s37.6-16.8,37.6-37.6S446.2,225.2,425.4,225.2z M424.7,285.5
	c-11.8,0-21.4-10.3-21.4-23c0-12.7,9.6-23,21.4-23c11.8,0,21.4,10.3,21.4,23C446.2,275.2,436.6,285.5,424.7,285.5z"/>
<path d="M540,228h-15.4l0.2,5.1c-6.6-5.5-13.9-8.4-18.8-8.4c-21,0-37.6,16.8-37.6,37.6S485,300,506,300c4.7,0,12.5-3.3,19.3-8.9
	l0,0.1c1,9.1-1.1,16.6-1.1,16.6s-6.2,11.6-20.2,10.7c-14-0.8-18.2-13.2-18.2-13.2l-13.2,5.6c0,0,2.9,21.9,34.2,21.9
	s33.4-29.9,33.4-29.9L540,228z M505.6,285.1c-11.8,0-21.4-10.3-21.4-23c0-12.7,9.6-23,21.4-23c11.8,0,21.4,10.3,21.4,23
	C527,274.8,517.4,285.1,505.6,285.1z"/>
<polygon points="550.5,187.4 567.3,186.9 567.8,297 551,297 "/>
<path d="M608.7,284.9c0,0-11.5-1.6-14.2-11.5l48.8-21c0,0-7.9-35.1-45.1-25.7c0,0-33.6,12.6-18.9,53.5c0,0,6.8,18.9,37.8,19.9
	c0,0,21-4.2,25.7-17.3l-12.6-8.4C630.2,274.5,627.6,286.5,608.7,284.9z M600.3,242.5c17.8-10.5,25.2,5.8,25.2,5.8l-33.6,13.6
	C589.3,250.3,600.3,242.5,600.3,242.5z"/>
</svg>
