<?xml version="1.0" encoding="utf-8"?>
<!-- Generator: Adobe Illustrator 20.1.0, SVG Export Plug-In . SVG Version: 6.00 Build 0)  -->
<svg version="1.1" id="Layer_1" xmlns="http://www.w3.org/2000/svg" xmlns:xlink="http://www.w3.org/1999/xlink" x="0px" y="0px"
	 viewBox="0 0 570.4 163.1" style="enable-background:new 0 0 570.4 163.1;" xml:space="preserve">
<style type="text/css">
	.st0{fill:#E5EEFD;}
</style>
<g>
	<g>
		<path class="st0" d="M18.5,18.8c-2-0.4-4-0.9-5.8-1.7c-0.5-0.2-2-1.3-2.1-1.3c1.6-0.3-1.5,6.7-1.5,6c0,0.7-1.3,0.3,0,0.1
			c-0.2,0,1.9-1.1,2.6-1.5c5.1-2.6,10.9-4.3,16.6-5.4c19.3-4.1,40.5,1.4,58.1,9.1c17.4,7.7,35.9,18.1,49.5,31.7
			c9.5,9.5,20.1,23.5,18.4,37.8c-2,16.7-24.2,24-38.2,25.6c-19.1,2.2-39.2-2.7-56-11.6c-7-3.7-14.6-8.1-19.8-14.2
			c-1-1.2-2.1-2.4-2.8-3.8c-0.2-0.5-0.7-2.3-0.9-2.5c-0.9-0.8,0.7-0.4-0.2,0.4c-1,0.9,1.6-0.9,1.8-1c9.3-5.5,19.7-4.9,30.2-4.4
			c12.8,0.6,26,2,38.4,5.4c2.1,0.6,4.2,1.2,6.2,2.1c0.9,0.4,1.8,0.8,2.6,1.3c0.3,0.2,2,1.4,1.1,0.7c1.1,0.9,0.2,0.8,0.4,0
			c0.2-0.9,0.1-1.8,0.4-2.7c0.1-0.3,1.7-3,1-1.9c0.7-1.1,0.1-0.2-0.3,0c-1.3,0.8-2.7,1.5-4.1,2.1c-5.3,2.4-7.9,16,0.2,12.4
			c5.9-2.7,11.9-6.9,13.2-13.8c0.9-4.8-1.4-8.2-5.4-10.4c-10.9-6-25.6-7.1-37.7-8.3c-12.3-1.2-25.7-2.5-37.7,1.2
			C37.6,73.2,28,78.9,26,89.1c-1.5,7.9,3.2,14.3,8.8,19.4c31.4,28.4,97.3,38.6,123.8-1.7c11.1-16.8,6.5-36.7-4.6-52.1
			c-13.2-18.2-34.1-31.1-54-40.8C77.1,2.7,49.8-4.3,24.6,3C17.1,5.2,8.2,8,3.3,14.4C0.7,17.6-1.4,23,1.1,26.8
			c2.5,3.7,8.2,4.7,12.2,5.6C18.9,33.7,25.2,20.3,18.5,18.8L18.5,18.8z"/>
		<path class="st0" d="M78.7,129.1c-0.2-25.6-0.4-51.1-0.6-76.7c0-3.7-0.1-7.5-0.1-11.2c0-3.3-2.7-4.6-5.5-3.2
			c-3.1,1.5-5.3,5.8-5.3,9.2c0.2,25.6,0.4,51.1,0.6,76.7c0,3.7,0.1,7.5,0.1,11.2c0,3.3,2.7,4.6,5.5,3.2
			C76.5,136.7,78.7,132.5,78.7,129.1L78.7,129.1z"/>
		<path class="st0" d="M244,71.9c-14.8-10.6-38-7.5-52.6,1.9c-16.1,10.3-26.1,34.3-10,49.5c14.6,13.7,41.2,7,56.3-2.3
			c9.5-5.8,17.8-15.4,19.5-26.7c1.9-12.6-8-20.1-19.8-20.2c-13.9-0.1-25.9,8.7-35.1,18.3c-9.7,10.1-17.3,22.2-22.9,35
			c-1.1,2.4-1.1,6.8,2.2,7.3c3.5,0.6,6.2-3.9,7.3-6.4c6.7-15.2,19-34,35.7-39.2c6.5-2,19.4-2.4,21.8,6c1.8,6.3-5.1,11.5-9.7,14.2
			c-11.9,7-30.6,11.9-43.4,4.5c-5.7-3.3-9.6-10.2-9.2-16.9c0.3-4.9,3.2-7.9,7.9-10.9c12.5-7.9,32-9.9,44.5-1
			C241.3,88.4,249.1,75.6,244,71.9L244,71.9z"/>
		<path class="st0" d="M335.1,73.8c-14.8-10.6-38-7.5-52.6,1.9c-16.1,10.3-26.1,34.3-10,49.5c14.6,13.7,41.2,7,56.3-2.3
			c9.5-5.8,17.8-15.4,19.5-26.7c1.9-12.6-8-20.1-19.8-20.2c-13.9-0.1-25.9,8.7-35.1,18.3c-9.7,10.1-17.3,22.2-22.9,35
			c-1.1,2.4-1.1,6.8,2.2,7.3c3.5,0.6,6.2-3.9,7.3-6.4c6.7-15.2,19-34,35.7-39.2c6.5-2,19.4-2.4,21.8,6c1.8,6.3-5.1,11.5-9.7,14.2
			c-11.9,7-30.6,11.9-43.4,4.5c-5.7-3.3-9.6-10.2-9.2-16.9c0.3-4.9,3.2-7.9,7.9-10.9c12.5-7.9,32-9.9,44.5-1
			C332.4,90.2,340.2,77.5,335.1,73.8L335.1,73.8z"/>
		<path class="st0" d="M340.7,149.9c0,25.8,49.5,6.5,61.1,2.2c10.4-3.9,20.3-7.9,28.9-15.2c10.8-9.1,20.6-23.1,20-37.9
			c-0.5-15.4-13.5-23.5-27.2-26.7c-11.9-2.8-25,0.4-36.5,3.8c-12.4,3.7-29.1,10.3-32,24.7c-2.3,11.5,7.6,16.4,17.2,18.6
			c11.8,2.6,26,2.6,37.4-1.6c10.8-4,19.9-16.7,9.7-26.4c-5-4.8-13.4,7.4-9.3,11.3c1.1,1,2.6,2.9,3,3.7c0.2,0.4,0,0.7,0.1,0.3
			c0.1-0.5,1.2-3.2,1.4-3.6c0.3-0.8,0.3-0.2,0.1-0.1c0.7-0.3-1.1,0.6-1.4,0.8c-1.4,0.7-2.7,1.1-4.6,1.6c-8.8,2.3-18.4,2.4-27.4,1
			c-3.9-0.6-7.8-1.4-11.2-3.3c-1.3-0.7-2.5-1.6-3.3-2.3c-0.2-0.2-1.1-1.4-0.9-1.2c-0.1-0.1-0.5-1.4-0.3-0.9c0.1,0.2-0.4,0.6-0.1,0.3
			c1.5-1.5,3.3-2.6,5.1-3.7c5-2.8,10.5-4.7,16.1-6.2c8-2.2,17.6-5,26-4.1c10.4,1.1,25.4,6.4,27.3,18.4c1.4,9.1-5.3,17.3-12,23.1
			c-6.1,5.2-13.2,8.3-20.6,11.1c-11.5,4.4-23.5,8.4-35.7,10.5c-4.8,0.8-9.9,1.5-14.7,0.5c-1.6-0.3-3.2-0.9-4.5-2
			c-0.6-0.6-0.8-1.5-0.8-2.6c0-3.3-2.7-4.6-5.5-3.2C342.9,142.3,340.7,146.5,340.7,149.9L340.7,149.9z"/>
		<path class="st0" d="M460.4,22.8c0.4,32,0.8,64,1.2,96c0.1,4.6,0.1,9.2,0.2,13.7c0,3.3,2.7,4.6,5.5,3.2c3.1-1.5,5.3-5.8,5.3-9.2
			c-0.4-32-0.8-64-1.2-96c-0.1-4.6-0.1-9.2-0.2-13.7c0-3.3-2.7-4.6-5.5-3.2C462.6,15.2,460.3,19.4,460.4,22.8L460.4,22.8z"/>
		<path class="st0" d="M485.1,113.5c23,6.9,50.7-2.4,67.7-18.7c6.7-6.4,14.3-16.9,11-26.8c-2.4-7.3-10.2-10.5-17.3-11.1
			c-21.3-1.7-38.7,15.2-47.3,33.1c-4.3,9-7.5,20.2-3.9,30c3,8.2,10,13.8,18.7,14.4c10.5,0.8,21.5-3.7,30.1-9.4
			c8.6-5.7,17.4-13.7,20.3-23.9c0.7-2.5,1.4-6.7-2.2-7.3c-3.2-0.5-6.6,3.8-7.3,6.4c-3.1,10.9-18.9,18.3-29.5,20.1
			c-14.4,2.5-24-9.1-19.4-22.9c4.3-13,15.4-24.6,29.3-26.6c5.3-0.8,12.6-0.4,16.6,3.8c4.2,4.3-0.3,8.4-3.8,11.4
			c-15.2,13.4-38.2,19.6-57.8,13.7C484.9,98.2,478.4,111.5,485.1,113.5L485.1,113.5z"/>
	</g>
</g>
</svg>
