<?xml version="1.0" encoding="utf-8"?>
<!-- Generator: Adobe Illustrator 21.0.0, SVG Export Plug-In . SVG Version: 6.00 Build 0)  -->
<svg version="1.1" id="Layer_1" xmlns="http://www.w3.org/2000/svg" xmlns:xlink="http://www.w3.org/1999/xlink" x="0px" y="0px"
	 viewBox="0 0 211.2 207.9" style="enable-background:new 0 0 211.2 207.9;" xml:space="preserve">
<style type="text/css">
	.st0{fill:#ff0000;}
</style>
<g>
	<polygon class="st0" points="73,137 3.3,119.1 59.9,74.7 55.3,2.9 115.1,43 181.9,16.5 162.3,85.7 208.2,141.1 136.3,143.8 
		97.8,204.5 	"/>
	<path d="M57,5.9l56.6,37.9l1.3,0.9l1.5-0.6L179.7,19l-18.6,65.5l-0.4,1.5l1,1.2l43.4,52.5l-68,2.6l-1.6,0.1l-0.8,1.3l-36.5,57.5
		l-23.5-63.9l-0.5-1.5l-1.5-0.4l-66-16.9l53.6-42.1l1.2-1l-0.1-1.6L57,5.9 M53.7,0l4.7,74L0,119.8l71.8,18.4l25.5,69.6l39.7-62.6
		l74.1-2.8L164,85.4L184.2,14l-69,27.3L53.7,0L53.7,0z"/>
</g>
</svg>
